<svg width="70" height="68" viewBox="0 0 70 68" fill="none" xmlns="http://www.w3.org/2000/svg">
<path d="M35 61.2473C28.5022 61.2473 22.2705 58.7572 17.6759 54.3249C13.0812 49.8925 10.5 43.881 10.5 37.6127C10.5 31.3444 13.0812 25.3329 17.6759 20.9006C22.2705 16.4682 28.5022 13.9782 35 13.9782C41.4978 13.9782 47.7295 16.4682 52.3241 20.9006C56.9188 25.3329 59.5 31.3444 59.5 37.6127C59.5 43.881 56.9188 49.8925 52.3241 54.3249C47.7295 58.7572 41.4978 61.2473 35 61.2473ZM35 7.22542C26.6457 7.22542 18.6335 10.4269 12.7261 16.1257C6.81874 21.8244 3.5 29.5535 3.5 37.6127C3.5 45.6719 6.81874 53.401 12.7261 59.0998C18.6335 64.7985 26.6457 68 35 68C43.3543 68 51.3665 64.7985 57.2739 59.0998C63.1813 53.401 66.5 45.6719 66.5 37.6127C66.5 29.5535 63.1813 21.8244 57.2739 16.1257C51.3665 10.4269 43.3543 7.22542 35 7.22542V7.22542ZM36.75 20.7309H31.5V40.9891L48.125 50.6117L50.75 46.4588L36.75 38.4568V20.7309ZM20.58 5.16584L16.1 0L0 12.999L4.515 18.1648L20.58 5.16584ZM70 13.0328L53.9 0L49.385 5.16584L65.485 18.1986L70 13.0328Z" fill="white"/>
</svg>
